<svg id="Layer_1" enable-background="new 0 0 485.3 485.3" height="512" viewBox="0 0 485.3 485.3" width="512" xmlns="http://www.w3.org/2000/svg"><g><circle cx="242.65" cy="242.65" fill="#cff" r="148.073"/><path d="m243.192 94.591v296.132c81.529-.293 147.531-66.469 147.531-148.066s-66.003-147.774-147.531-148.066z" fill="#a8ebfa"/><g><g><path d="m441.067 369.281c-2.591 0-5.215-.671-7.607-2.083-7.135-4.209-9.507-13.406-5.298-20.541 18.515-31.383 27.138-64.432 27.138-104.007 0-117.255-95.395-212.65-212.65-212.65-49.012 0-84.319 11.575-125.926 41.284-6.741 4.815-16.109 3.251-20.924-3.491-4.814-6.742-3.251-16.11 3.491-20.924 46.623-33.29 88.157-46.869 143.359-46.869 64.814 0 125.749 25.24 171.58 71.07 45.831 45.831 71.07 106.766 71.07 171.58 0 45.163-9.946 83.055-31.299 119.251-2.798 4.742-7.8 7.38-12.934 7.38z" fill="#012f7e"/></g><g><path d="m242.65 485.3c-64.814 0-125.749-25.24-171.58-71.07-45.83-45.831-71.07-106.766-71.07-171.58 0-53.288 13.163-96.349 41.423-135.515 4.848-6.718 14.222-8.235 20.941-3.387 6.718 4.848 8.234 14.223 3.387 20.941-24.725 34.267-35.751 70.647-35.751 117.961 0 117.255 95.395 212.65 212.65 212.65 56.464 0 107.231-20.339 146.813-58.817 5.939-5.774 15.437-5.641 21.211.3 5.774 5.94 5.64 15.437-.3 21.211-22.083 21.467-47.542 38.16-75.671 49.615-28.828 11.739-59.799 17.691-92.053 17.691z" fill="#012f7e"/></g></g><g fill="#141466"><path d="m389.463 396.483c-39.572 38.469-90.324 58.807-146.772 58.817v30c32.239-.005 63.196-5.957 92.011-17.691 28.129-11.455 53.589-28.147 75.671-49.615 5.94-5.774 6.074-15.271.3-21.211-5.773-5.941-15.27-6.075-21.21-.3z"/><path d="m242.692.001v30c117.236.023 212.608 95.408 212.608 212.649 0 39.575-8.624 72.624-27.138 104.007-4.209 7.135-1.837 16.332 5.298 20.541 2.393 1.412 5.017 2.083 7.607 2.083 5.134 0 10.136-2.639 12.934-7.38 21.354-36.196 31.299-74.088 31.299-119.251 0-64.814-25.24-125.749-71.07-171.58-45.821-45.819-106.74-71.058-171.538-71.069z"/></g><path d="m405.723 242.65c0-89.54-72.543-162.446-161.942-163.058-.16-.005-.32-.007-.48-.006-.218-.001-.434-.008-.651-.008-89.918 0-163.073 73.154-163.073 163.073 0 89.892 73.111 163.028 162.992 163.072.022 0 .045.003.067.003.009 0 .019-.002.028-.002 89.913-.009 163.059-73.16 163.059-163.074zm-30.85-15h-63.891c-2.281-53.704-16.765-89.858-30.835-112.686 50.541 14.867 88.674 58.988 94.726 112.686zm-131.924 142.746c-3.922-4.427-8.825-10.803-13.771-19.426-10.119-17.642-21.997-47.659-24.151-93.32h75.902c-2.154 44.316-13.472 73.842-23.124 91.333-5.305 9.615-10.639 16.633-14.856 21.413zm-37.897-142.746c2.154-44.316 13.472-73.842 23.124-91.333 5.306-9.615 10.64-16.632 14.857-21.413 3.922 4.427 8.825 10.802 13.771 19.425 10.119 17.642 21.997 47.659 24.151 93.32h-75.903zm1.068-112.974c-14.118 22.833-28.752 59.096-31.104 112.974h-64.588c6.09-54.041 44.67-98.388 95.692-112.974zm-95.692 142.974h64.573c2.289 53.897 16.87 90.121 30.987 112.935-50.956-14.625-89.475-58.94-95.56-112.935zm169.586 112.726c14.071-22.847 28.609-59.04 30.953-112.726h63.906c-6.058 53.746-44.252 97.897-94.859 112.726z" fill="#4d2ee6"/><path d="m477.042 387.997c0-24.728-20.493-44.67-45.422-43.77-22.7.82-41.228 19.279-42.139 41.975-.347 8.643 1.825 16.75 5.823 23.669h-.01c.586.971.037.07 1.423 2.291l35.739 57.541c1.206 1.942 4.052 1.88 5.172-.112l33.626-59.791h-.031c3.695-6.422 5.819-13.863 5.819-21.803z" fill="#e20059"/><path d="m118.293 58.03c0-27.524-22.81-49.721-50.558-48.718-25.266.913-45.89 21.458-46.904 46.72-.386 9.62 2.032 18.643 6.482 26.345h-.011c.652 1.081.042.078 1.584 2.55l39.198 63.111c1.604 2.582 5.388 2.5 6.878-.15l36.888-65.591h-.034c4.113-7.147 6.477-15.429 6.477-24.267z" fill="#ff4a4a"/><circle cx="69.542" cy="58.021" fill="#fff" r="15.173"/><circle cx="433.243" cy="388.823" fill="#e6e6e6" r="15.173"/><path d="m243.781 79.6c-.16-.005-.32-.007-.48-.006-.037 0-.073-.001-.11-.001v35.504c3.896 4.42 8.731 10.732 13.612 19.242 10.119 17.642 21.997 47.659 24.151 93.32h-37.763v30h37.738c-2.154 44.316-13.472 73.842-23.124 91.333-5.206 9.434-10.436 16.361-14.614 21.134v35.599c89.67-.294 162.531-73.329 162.531-163.066.001-89.541-72.541-162.447-161.941-163.059zm36.233 290.784c14.071-22.847 28.609-59.04 30.953-112.726h63.906c-6.058 53.746-44.252 97.897-94.859 112.726zm30.968-142.726c-2.281-53.704-16.765-89.858-30.835-112.686 50.541 14.867 88.674 58.987 94.726 112.686z" fill="#012f7e"/></g></svg>